<svg width="223" height="223" viewBox="0 0 223 223" fill="none" xmlns="http://www.w3.org/2000/svg">
<rect x="65.7999" y="58.115" width="100" height="4" rx="2" transform="rotate(45 65.7999 58.115)" fill="#D9D9D9"/>
<rect x="65.6849" y="21" width="99.8368" height="4" rx="2" transform="rotate(45 65.6849 21)" fill="#D9D9D9"/>
<rect x="151.941" y="38.2564" width="13.6003" height="4" rx="2" transform="rotate(45 151.941 38.2564)" fill="#D9D9D9"/>
<rect x="137.736" y="41.5145" width="15.4383" height="4" rx="2" transform="rotate(-10 137.736 41.5145)" fill="#D9D9D9"/>
<rect x="161.071" y="46.2332" width="15.4383" height="4" rx="2" transform="rotate(95 161.071 46.2332)" fill="#D9D9D9"/>
<rect x="62.7411" y="197.595" width="100.396" height="4" rx="2" transform="rotate(-45 62.7411 197.595)" fill="#D9D9D9"/>
<rect x="62" y="162.336" width="74.1779" height="4" rx="2" transform="rotate(-45 62 162.336)" fill="#D9D9D9"/>
<rect x="109.741" y="70.3362" width="42.3603" height="4" rx="2" transform="rotate(-45 109.741 70.3362)" fill="#D9D9D9"/>
<rect x="127.741" y="86.8378" width="42.3603" height="4" rx="2" transform="rotate(-45 127.741 86.8378)" fill="#D9D9D9"/>
<rect x="112.741" y="148.885" width="41" height="4" rx="2" transform="rotate(-90 112.741 148.885)" fill="#D9D9D9"/>
<rect x="131.741" y="93.8846" width="45" height="4" rx="2" transform="rotate(-90 131.741 93.8846)" fill="#D9D9D9"/>
<rect x="131.741" y="130.885" width="41" height="4" rx="2" transform="rotate(-90 131.741 130.885)" fill="#D9D9D9"/>
<rect x="63.7411" y="62.8846" width="40" height="4" rx="2" transform="rotate(-90 63.7411 62.8846)" fill="#D9D9D9"/>
<rect x="62.7411" y="199.885" width="39" height="4" rx="2" transform="rotate(-90 62.7411 199.885)" fill="#D9D9D9"/>
<rect x="85.7411" y="176.885" width="96" height="4" rx="2" transform="rotate(-90 85.7411 176.885)" fill="#D9D9D9"/>
</svg>
