<svg width="120" height="38" viewBox="0 0 120 38" fill="none" xmlns="http://www.w3.org/2000/svg">
<g filter="url(#filter0_n_36_2)">
<path d="M34.5415 11.616C34.6215 11.728 34.6615 11.904 34.6615 12.144C34.6615 12.32 34.6295 12.496 34.5655 12.672C34.5175 12.848 34.4455 12.984 34.3495 13.08C34.3495 13.352 34.3255 13.576 34.2775 13.752C34.2295 13.928 34.1495 14.088 34.0375 14.232C34.0695 14.36 34.0855 14.464 34.0855 14.544C34.0855 14.752 34.0455 14.96 33.9655 15.168C33.9015 15.36 33.8135 15.504 33.7015 15.6C33.7815 15.76 33.8215 15.928 33.8215 16.104C33.8215 16.264 33.7895 16.432 33.7255 16.608C33.6615 16.768 33.5815 16.904 33.4855 17.016C33.5495 17.144 33.5815 17.304 33.5815 17.496C33.5815 17.672 33.5495 17.856 33.4855 18.048C33.4215 18.224 33.3335 18.368 33.2215 18.48C33.2375 18.56 33.2455 18.688 33.2455 18.864C33.2455 19.216 33.1495 19.52 32.9575 19.776C33.0375 19.968 33.0775 20.136 33.0775 20.28C33.0775 20.568 32.9575 20.848 32.7175 21.12C32.7975 21.36 32.8375 21.552 32.8375 21.696C32.8375 22 32.7015 22.24 32.4295 22.416C32.4615 22.464 32.4775 22.544 32.4775 22.656C32.4775 22.832 32.4295 23.016 32.3335 23.208C32.2375 23.4 32.1335 23.528 32.0215 23.592C32.0855 23.72 32.1175 23.824 32.1175 23.904C32.1175 24.064 32.0695 24.224 31.9735 24.384C31.8935 24.544 31.7815 24.632 31.6375 24.648C31.7015 24.76 31.7335 24.896 31.7335 25.056C31.7335 25.28 31.6695 25.488 31.5415 25.68C31.4295 25.872 31.2855 25.992 31.1095 26.04C31.1095 26.344 31.0295 26.584 30.8695 26.76C30.7095 26.92 30.5175 27 30.2935 27C30.0855 27 29.8935 26.928 29.7175 26.784C29.5415 26.624 29.4455 26.416 29.4295 26.16C29.3015 26.08 29.1735 25.912 29.0455 25.656C28.9175 25.4 28.8535 25.152 28.8535 24.912C28.8535 24.768 28.8775 24.648 28.9255 24.552C28.7175 24.472 28.5415 24.336 28.3975 24.144C28.2695 23.936 28.2055 23.712 28.2055 23.472C28.2055 23.408 28.2215 23.312 28.2535 23.184C28.0135 23.056 27.8215 22.88 27.6775 22.656C27.5335 22.432 27.4615 22.192 27.4615 21.936C27.4615 21.808 27.4855 21.672 27.5335 21.528C27.0375 21.256 26.7895 20.808 26.7895 20.184C26.7895 19.784 26.8535 19.456 26.9815 19.2C26.5975 19.072 26.4055 18.784 26.4055 18.336C26.4055 18.224 26.4135 18.144 26.4295 18.096C26.2855 18.032 26.1495 17.864 26.0215 17.592C25.9095 17.304 25.8535 17.048 25.8535 16.824C25.8535 16.648 25.8935 16.52 25.9735 16.44C25.8455 16.408 25.7335 16.304 25.6375 16.128C25.5575 15.952 25.5175 15.76 25.5175 15.552C25.5175 15.424 25.5415 15.304 25.5895 15.192C25.5255 15.128 25.4775 15.04 25.4455 14.928C25.4615 15.232 25.4055 15.528 25.2775 15.816C25.1655 16.088 25.0055 16.288 24.7975 16.416C24.8775 16.512 24.9175 16.648 24.9175 16.824C24.9175 17.016 24.8695 17.224 24.7735 17.448C24.6775 17.656 24.5815 17.824 24.4855 17.952C24.5335 18.064 24.5575 18.2 24.5575 18.36C24.5575 18.568 24.5175 18.768 24.4375 18.96C24.3735 19.136 24.2775 19.28 24.1495 19.392C24.1815 19.472 24.1975 19.608 24.1975 19.8C24.1975 20.04 24.1495 20.288 24.0535 20.544C23.9735 20.784 23.8535 20.976 23.6935 21.12C23.7415 21.28 23.7655 21.44 23.7655 21.6C23.7655 21.808 23.7255 22 23.6455 22.176C23.5655 22.352 23.4535 22.488 23.3095 22.584C23.3415 22.888 23.2935 23.208 23.1655 23.544C23.0535 23.88 22.8775 24.104 22.6375 24.216C22.7335 24.376 22.7815 24.56 22.7815 24.768C22.7815 25.008 22.7175 25.248 22.5895 25.488C22.4615 25.712 22.3015 25.872 22.1095 25.968C22.0935 26.224 21.9895 26.456 21.7975 26.664C21.6215 26.872 21.3975 26.976 21.1255 26.976C20.7575 26.976 20.4455 26.824 20.1895 26.52C19.9495 26.216 19.8295 25.864 19.8295 25.464C19.8295 25.24 19.8775 25.032 19.9735 24.84C19.7975 24.76 19.6535 24.616 19.5415 24.408C19.4455 24.2 19.3975 23.984 19.3975 23.76C19.3975 23.6 19.4215 23.464 19.4695 23.352C19.3575 23.24 19.2695 23.088 19.2055 22.896C19.1415 22.704 19.1095 22.504 19.1095 22.296C19.1095 22.104 19.1335 21.952 19.1815 21.84C19.0055 21.744 18.8695 21.6 18.7735 21.408C18.6935 21.2 18.6535 20.984 18.6535 20.76C18.6535 20.52 18.6935 20.352 18.7735 20.256C18.4855 20.144 18.3415 19.952 18.3415 19.68C18.3415 19.616 18.3735 19.488 18.4375 19.296C18.2615 19.168 18.1735 18.976 18.1735 18.72C18.1735 18.576 18.2055 18.448 18.2695 18.336C17.9495 18.16 17.8055 17.84 17.8375 17.376C17.6775 17.264 17.5655 17.12 17.5015 16.944C17.4375 16.768 17.4215 16.592 17.4535 16.416C17.2295 16.192 17.1175 15.936 17.1175 15.648C17.1175 15.504 17.1415 15.376 17.1895 15.264C17.1095 15.184 17.0455 15.08 16.9975 14.952C16.9495 14.824 16.9255 14.704 16.9255 14.592C16.9255 14.464 16.9415 14.376 16.9735 14.328C16.7495 14.168 16.6375 13.936 16.6375 13.632C16.6375 13.408 16.6855 13.216 16.7815 13.056C16.6535 13.008 16.5335 12.864 16.4215 12.624C16.3255 12.384 16.2775 12.144 16.2775 11.904C16.2775 11.776 16.3095 11.632 16.3735 11.472C16.2615 11.248 16.2055 11.024 16.2055 10.8C16.2055 10.512 16.2855 10.28 16.4455 10.104C16.6215 9.928 16.8615 9.84 17.1655 9.84C17.4855 9.84 17.7335 10.008 17.9095 10.344C18.1015 10.664 18.1975 11.016 18.1975 11.4L18.1735 11.64C18.3495 11.8 18.4935 12.024 18.6055 12.312C18.7175 12.6 18.7735 12.888 18.7735 13.176C18.7735 13.336 18.7655 13.448 18.7495 13.512C18.9415 13.704 19.0375 13.912 19.0375 14.136C19.0375 14.248 19.0295 14.344 19.0135 14.424C19.0935 14.472 19.1575 14.56 19.2055 14.688C19.2695 14.8 19.3015 14.928 19.3015 15.072C19.3015 15.232 19.2695 15.376 19.2055 15.504C19.3495 15.712 19.4215 15.888 19.4215 16.032C19.5655 16.112 19.6775 16.248 19.7575 16.44C19.8375 16.632 19.8775 16.832 19.8775 17.04C19.8775 17.168 19.8695 17.256 19.8535 17.304C20.1575 17.64 20.3095 17.992 20.3095 18.36C20.3095 18.456 20.3015 18.528 20.2855 18.576C20.3655 18.64 20.4375 18.752 20.5015 18.912C20.5655 19.072 20.5975 19.232 20.5975 19.392C20.5975 19.488 20.5895 19.552 20.5735 19.584C20.7495 19.776 20.8215 20.096 20.7895 20.544C20.9655 20.72 21.0535 20.928 21.0535 21.168C21.0535 21.328 21.0055 21.48 20.9095 21.624C20.9895 21.656 21.0615 21.816 21.1255 22.104C21.2055 22.376 21.2455 22.632 21.2455 22.872C21.2455 22.616 21.2615 22.392 21.2935 22.2C21.3415 21.992 21.4055 21.88 21.4855 21.864C21.4695 21.576 21.5015 21.336 21.5815 21.144C21.6775 20.936 21.7895 20.816 21.9175 20.784C21.8855 20.624 21.9095 20.4 21.9895 20.112C22.0855 19.808 22.1975 19.592 22.3255 19.464C22.3255 19.144 22.3575 18.872 22.4215 18.648C22.5015 18.408 22.5975 18.224 22.7095 18.096C22.6775 18 22.6615 17.904 22.6615 17.808C22.6615 17.6 22.7015 17.384 22.7815 17.16C22.8775 16.936 22.9735 16.808 23.0695 16.776C23.0535 16.712 23.0455 16.584 23.0455 16.392C23.0455 15.944 23.1495 15.672 23.3575 15.576C23.3255 15.448 23.3095 15.328 23.3095 15.216C23.3095 14.96 23.3495 14.704 23.4295 14.448C23.5255 14.192 23.6295 14.032 23.7415 13.968C23.7095 13.808 23.6935 13.688 23.6935 13.608C23.6935 13.416 23.7255 13.232 23.7895 13.056C23.8695 12.864 23.9655 12.728 24.0775 12.648C24.0615 12.552 24.0535 12.416 24.0535 12.24C24.0535 11.856 24.1735 11.52 24.4135 11.232C24.4775 11.008 24.5895 10.84 24.7495 10.728C24.9255 10.616 25.1095 10.56 25.3015 10.56C25.5735 10.56 25.8215 10.656 26.0455 10.848C26.2695 11.024 26.3815 11.256 26.3815 11.544C26.3815 11.688 26.3655 11.8 26.3335 11.88C26.4295 11.928 26.5175 12.032 26.5975 12.192C26.6775 12.352 26.7175 12.504 26.7175 12.648C26.7175 12.696 26.7015 12.768 26.6695 12.864C26.8615 12.88 27.0135 13.024 27.1255 13.296C27.2535 13.568 27.2935 13.792 27.2455 13.968C27.5175 14.208 27.6535 14.52 27.6535 14.904C27.6535 15 27.6375 15.128 27.6055 15.288C27.7175 15.416 27.8055 15.592 27.8695 15.816C27.9495 16.024 27.9895 16.232 27.9895 16.44C27.9895 16.552 27.9735 16.672 27.9415 16.8C28.0855 16.864 28.2055 17.024 28.3015 17.28C28.4135 17.536 28.4695 17.824 28.4695 18.144C28.4695 18.288 28.4615 18.4 28.4455 18.48C28.6215 18.576 28.7575 18.744 28.8535 18.984C28.9655 19.224 29.0215 19.464 29.0215 19.704C29.0215 19.8 29.0055 19.896 28.9735 19.992C29.1335 20.12 29.2695 20.424 29.3815 20.904C29.4935 21.368 29.5255 21.672 29.4775 21.816C29.6215 21.896 29.7495 22.072 29.8615 22.344C29.9895 22.6 30.0695 22.904 30.1015 23.256C30.1015 22.904 30.1255 22.64 30.1735 22.464C30.2215 22.272 30.3255 22.048 30.4855 21.792C30.4215 21.664 30.3895 21.504 30.3895 21.312C30.3895 21.104 30.4295 20.904 30.5095 20.712C30.6055 20.52 30.7255 20.376 30.8695 20.28C30.8055 20.168 30.7735 20.032 30.7735 19.872C30.7735 19.664 30.8135 19.448 30.8935 19.224C30.9735 18.984 31.0695 18.8 31.1815 18.672C31.1335 18.544 31.1095 18.424 31.1095 18.312C31.1095 18.136 31.1735 17.96 31.3015 17.784C31.2535 17.656 31.2295 17.536 31.2295 17.424C31.2295 17.264 31.2775 17.104 31.3735 16.944C31.4855 16.768 31.5655 16.632 31.6135 16.536C31.5175 16.36 31.4695 16.152 31.4695 15.912C31.4695 15.672 31.5095 15.448 31.5895 15.24C31.6855 15.016 31.8055 14.848 31.9495 14.736C31.9175 14.48 31.9415 14.2 32.0215 13.896C32.1175 13.592 32.2295 13.352 32.3575 13.176C32.2935 12.824 32.2615 12.592 32.2615 12.48C32.2615 12.208 32.3415 11.944 32.5015 11.688C32.4855 11.64 32.4775 11.568 32.4775 11.472C32.4775 11.104 32.5895 10.744 32.8135 10.392C33.0535 10.024 33.3495 9.84 33.7015 9.84C34.3415 9.84 34.6615 10.152 34.6615 10.776C34.6615 10.888 34.6215 11.168 34.5415 11.616ZM39.0659 25.656C39.1459 25.896 39.1859 26.08 39.1859 26.208C39.1859 26.48 39.0819 26.68 38.8739 26.808C38.6819 26.936 38.4179 27 38.0819 27C37.7299 27 37.4579 26.888 37.2659 26.664C37.0899 26.424 37.0019 26.144 37.0019 25.824C37.0019 25.552 37.0659 25.336 37.1939 25.176C37.0019 24.984 36.9059 24.696 36.9059 24.312C36.9059 23.896 37.0339 23.568 37.2899 23.328C37.0819 23.12 36.9779 22.848 36.9779 22.512C36.9779 22.176 37.0739 21.856 37.2659 21.552C37.2179 21.408 37.1939 21.24 37.1939 21.048C37.1939 20.808 37.2179 20.608 37.2659 20.448C37.1219 20.272 37.0499 20.08 37.0499 19.872C37.0499 19.68 37.0979 19.512 37.1939 19.368C37.1299 19.256 37.0979 19.128 37.0979 18.984C37.0979 18.856 37.1219 18.736 37.1699 18.624C36.9939 18.4 36.9059 18.136 36.9059 17.832C36.9059 17.592 36.9699 17.368 37.0979 17.16C37.0499 17.032 37.0259 16.904 37.0259 16.776C37.0259 16.696 37.0419 16.592 37.0739 16.464C36.9619 16.304 36.9059 16.072 36.9059 15.768C36.9059 15.48 36.9619 15.256 37.0739 15.096C36.9779 14.904 36.9299 14.688 36.9299 14.448C36.9299 14.224 36.9859 14.024 37.0979 13.848C36.9699 13.592 36.9059 13.352 36.9059 13.128C36.9059 12.856 36.9699 12.616 37.0979 12.408C36.9859 12.28 36.9299 12.088 36.9299 11.832C36.9299 11.64 36.9619 11.432 37.0259 11.208C36.9619 10.984 36.9299 10.8 36.9299 10.656C36.9299 10.464 36.9779 10.312 37.0739 10.2C37.0579 9.928 37.1379 9.704 37.3139 9.528C37.4899 9.352 37.7059 9.264 37.9619 9.264C38.0899 9.264 38.2499 9.304 38.4419 9.384C38.6179 9.48 38.7539 9.656 38.8499 9.912C38.9619 10.168 39.0179 10.44 39.0179 10.728C39.0179 11.016 38.9619 11.272 38.8499 11.496C38.9619 11.704 39.0179 11.928 39.0179 12.168C39.0179 12.44 38.9379 12.752 38.7779 13.104C38.9219 13.36 38.9939 13.632 38.9939 13.92C38.9939 14.096 38.9619 14.24 38.8979 14.352C39.0739 14.48 39.1619 14.672 39.1619 14.928C39.1619 15.072 39.1139 15.232 39.0179 15.408C39.1139 15.44 39.1699 15.56 39.1859 15.768C39.2179 15.976 39.2339 16.096 39.2339 16.128C39.3139 15.92 39.4579 15.76 39.6659 15.648C39.8739 15.52 40.0579 15.472 40.2179 15.504C40.2819 15.312 40.4019 15.168 40.5779 15.072C40.7539 14.96 40.9379 14.904 41.1299 14.904C41.2099 14.904 41.3139 14.92 41.4419 14.952C41.5699 14.824 41.7619 14.76 42.0179 14.76C42.1939 14.76 42.3379 14.792 42.4499 14.856C42.5299 14.808 42.6339 14.784 42.7619 14.784C42.9219 14.784 43.0819 14.824 43.2419 14.904C43.3699 14.856 43.4899 14.832 43.6019 14.832C43.8099 14.832 43.9859 14.904 44.1299 15.048C44.2739 15.016 44.4659 15.08 44.7059 15.24C44.9459 15.4 45.0739 15.584 45.0899 15.792C45.3779 16.032 45.5219 16.288 45.5219 16.56C45.5219 16.656 45.4979 16.744 45.4499 16.824C45.5459 16.888 45.6259 16.992 45.6899 17.136C45.7539 17.28 45.7859 17.432 45.7859 17.592C45.7859 17.704 45.7779 17.792 45.7619 17.856C45.9539 18 46.0499 18.224 46.0499 18.528C46.0499 18.752 45.9939 18.96 45.8819 19.152C46.0259 19.376 46.0979 19.584 46.0979 19.776C46.0979 19.888 46.0739 20.008 46.0259 20.136C46.1059 20.344 46.1459 20.584 46.1459 20.856C46.1459 21.176 46.0899 21.44 45.9779 21.648C46.0259 21.76 46.0499 22 46.0499 22.368C46.0499 22.832 46.0179 23.136 45.9539 23.28C46.0659 23.44 46.1219 23.688 46.1219 24.024C46.1219 24.408 46.0499 24.688 45.9059 24.864C46.0019 25.008 46.0499 25.216 46.0499 25.488C46.0499 25.808 45.9939 26.08 45.8819 26.304C45.8979 26.48 45.7939 26.632 45.5699 26.76C45.3619 26.888 45.1299 26.952 44.8739 26.952C44.6499 26.952 44.4659 26.896 44.3219 26.784C44.1939 26.672 44.1379 26.512 44.1539 26.304C43.9779 26.032 43.8899 25.728 43.8899 25.392C43.8899 25.104 43.9379 24.832 44.0339 24.576C43.9539 24.336 43.9139 24.048 43.9139 23.712C43.9139 23.36 43.9539 23.104 44.0339 22.944C43.9699 22.848 43.9379 22.696 43.9379 22.488C43.9379 22.248 43.9779 22.064 44.0579 21.936C43.9459 21.76 43.8899 21.552 43.8899 21.312C43.8899 21.136 43.9299 21.008 44.0099 20.928C43.8659 20.704 43.7939 20.464 43.7939 20.208C43.7939 20.032 43.8259 19.904 43.8899 19.824C43.7139 19.696 43.6259 19.472 43.6259 19.152C43.6259 18.896 43.6819 18.712 43.7939 18.6C43.5059 18.36 43.3619 18.096 43.3619 17.808C43.3619 17.648 43.3939 17.504 43.4579 17.376C43.3459 17.408 43.2179 17.376 43.0739 17.28C42.9299 17.168 42.8339 17.048 42.7859 16.92C42.6259 17 42.4259 17.04 42.1859 17.04C42.0899 17.04 42.0259 17.032 41.9939 17.016C41.9299 17.112 41.8019 17.2 41.6099 17.28C41.4339 17.344 41.2979 17.36 41.2019 17.328C41.0739 17.456 40.9139 17.584 40.7219 17.712C40.5299 17.84 40.3939 17.896 40.3139 17.88C40.2819 18.024 40.1779 18.2 40.0019 18.408C39.8259 18.6 39.6579 18.696 39.4979 18.696C39.5299 18.824 39.5459 18.928 39.5459 19.008C39.5459 19.216 39.4739 19.52 39.3299 19.92C39.4579 20.096 39.5219 20.28 39.5219 20.472C39.5219 20.648 39.4659 20.832 39.3539 21.024C39.3859 21.088 39.4019 21.192 39.4019 21.336C39.4019 21.48 39.3699 21.648 39.3059 21.84C39.3379 21.952 39.3539 22.08 39.3539 22.224C39.3539 22.384 39.2899 22.568 39.1619 22.776C39.3379 22.856 39.4259 23.088 39.4259 23.472C39.4259 23.664 39.4019 23.864 39.3539 24.072C39.3059 24.28 39.2419 24.448 39.1619 24.576C39.2579 24.736 39.3059 24.92 39.3059 25.128C39.3059 25.336 39.2259 25.512 39.0659 25.656ZM48.8943 9.888C48.6863 9.984 48.5183 10.12 48.3903 10.296C48.2623 10.472 48.1982 10.656 48.1982 10.848C48.1982 11.104 48.3023 11.36 48.5103 11.616C48.4783 11.824 48.5903 12.024 48.8463 12.216C49.1023 12.408 49.3823 12.504 49.6863 12.504C49.8943 12.504 50.0783 12.448 50.2383 12.336C50.6863 12.096 50.9103 11.792 50.9103 11.424C50.9103 11.184 50.8143 10.912 50.6223 10.608C50.6383 10.288 50.5423 10.04 50.3343 9.864C50.1423 9.672 49.9103 9.576 49.6383 9.576C49.3343 9.576 49.0863 9.68 48.8943 9.888ZM50.4543 20.496C50.5823 20.544 50.6783 20.696 50.7423 20.952C50.8223 21.208 50.8623 21.488 50.8623 21.792C50.8623 22.144 50.8063 22.376 50.6943 22.488C50.7903 22.728 50.8383 22.96 50.8383 23.184C50.8383 23.472 50.7663 23.712 50.6223 23.904C50.7343 24.176 50.7903 24.496 50.7903 24.864C50.7903 25.168 50.7423 25.416 50.6463 25.608C50.6943 25.752 50.7183 25.888 50.7183 26.016C50.7183 26.304 50.6143 26.536 50.4062 26.712C50.1983 26.872 49.9503 26.952 49.6623 26.952C49.3903 26.952 49.1583 26.872 48.9663 26.712C48.7743 26.536 48.6863 26.304 48.7023 26.016C48.6223 25.92 48.5583 25.768 48.5103 25.56C48.4623 25.352 48.4383 25.136 48.4383 24.912C48.4383 24.496 48.5263 24.224 48.7023 24.096C48.5743 23.888 48.5103 23.576 48.5103 23.16C48.5103 22.744 48.5663 22.44 48.6783 22.248C48.6143 22.184 48.5663 22.032 48.5343 21.792C48.5023 21.552 48.4863 21.288 48.4863 21C48.4863 20.728 48.5023 20.488 48.5343 20.28C48.5663 20.056 48.6143 19.912 48.6783 19.848C48.5823 19.752 48.5343 19.488 48.5343 19.056C48.5343 18.56 48.5903 18.2 48.7023 17.976C48.6223 17.848 48.5503 17.68 48.4863 17.472C48.4223 17.264 48.3903 17.072 48.3903 16.896C48.3903 16.736 48.4063 16.624 48.4383 16.56C48.3103 16.144 48.2463 15.808 48.2463 15.552C48.2463 15.28 48.3103 15 48.4383 14.712C48.4063 14.472 48.4623 14.288 48.6063 14.16C48.7503 14.032 48.9583 13.968 49.2303 13.968C49.9663 13.968 50.3343 14.416 50.3343 15.312C50.4783 15.408 50.5823 15.544 50.6463 15.72C50.7263 15.88 50.7663 16.064 50.7663 16.272C50.7663 16.608 50.6863 16.896 50.5263 17.136C50.5903 17.232 50.6383 17.376 50.6703 17.568C50.7183 17.76 50.7423 17.952 50.7423 18.144C50.7423 18.4 50.7023 18.576 50.6223 18.672C50.6863 18.752 50.7183 18.92 50.7183 19.176C50.7183 19.416 50.6863 19.672 50.6223 19.944C50.5743 20.216 50.5183 20.4 50.4543 20.496ZM61.4639 24.168C61.5119 24.328 61.5359 24.488 61.5359 24.648C61.5359 24.968 61.4079 25.184 61.1519 25.296C61.1839 25.536 61.0879 25.776 60.8639 26.016C60.6399 26.256 60.4319 26.376 60.2399 26.376C60.1599 26.52 59.9199 26.656 59.5199 26.784C59.1199 26.912 58.7519 26.976 58.4159 26.976C58.1759 26.976 57.9919 26.928 57.8639 26.832C57.6399 26.944 57.3199 27 56.9039 27C56.5359 27 56.1999 26.944 55.8959 26.832C55.6079 26.72 55.4319 26.552 55.3679 26.328C55.0479 26.376 54.6879 26.28 54.2879 26.04C53.9039 25.8 53.6559 25.552 53.5439 25.296C53.2559 25.216 53.0159 25.064 52.8239 24.84C52.6479 24.616 52.5519 24.352 52.5359 24.048C52.4399 23.904 52.3919 23.76 52.3919 23.616C52.3919 23.392 52.4639 23.192 52.6079 23.016C52.7679 22.84 52.9519 22.752 53.1599 22.752C53.3679 22.752 53.5679 22.88 53.7599 23.136C54.0479 23.104 54.3039 23.2 54.5279 23.424C54.7679 23.648 54.8879 23.872 54.8879 24.096C54.9359 24.096 55.0559 24.112 55.2479 24.144C55.4559 24.16 55.6399 24.216 55.7999 24.312C55.9599 24.408 56.0719 24.544 56.1359 24.72C56.4239 24.72 56.7039 24.76 56.9759 24.84C57.2639 24.904 57.4319 24.984 57.4799 25.08C57.6079 25 57.7919 24.936 58.0319 24.888C58.2879 24.824 58.5039 24.792 58.6799 24.792C58.7279 24.728 58.8479 24.664 59.0399 24.6C59.2319 24.536 59.3919 24.496 59.5199 24.48C59.4399 24.368 59.3999 24.2 59.3999 23.976C59.3999 23.64 59.5039 23.4 59.7119 23.256C59.5199 23.192 59.3679 23.096 59.2559 22.968C59.1439 22.824 59.0959 22.664 59.1119 22.488C58.9839 22.52 58.8879 22.536 58.8239 22.536C58.5199 22.536 58.2719 22.416 58.0799 22.176C57.7599 22.208 57.4399 22.136 57.1199 21.96C56.8159 21.784 56.5919 21.552 56.4479 21.264C56.3359 21.312 56.2159 21.336 56.0879 21.336C55.8159 21.336 55.5279 21.256 55.2239 21.096C54.9359 20.92 54.7519 20.752 54.6719 20.592C54.4479 20.656 54.1839 20.584 53.8799 20.376C53.5759 20.168 53.4239 19.936 53.4239 19.68C53.2319 19.584 53.0799 19.424 52.9679 19.2C52.8559 18.96 52.7999 18.744 52.7999 18.552C52.7999 18.408 52.8319 18.312 52.8959 18.264C52.8159 18.104 52.7759 17.944 52.7759 17.784C52.7759 17.496 52.8719 17.248 53.0639 17.04C53.0159 16.864 52.9919 16.704 52.9919 16.56C52.9919 16.288 53.0479 16.064 53.1599 15.888C53.2879 15.696 53.4399 15.616 53.6159 15.648C53.5839 15.392 53.6399 15.168 53.7839 14.976C53.9439 14.784 54.1359 14.648 54.3599 14.568C54.5999 14.472 54.8079 14.44 54.9839 14.472C55.0799 14.328 55.2079 14.216 55.3679 14.136C55.5279 14.056 55.6879 14.016 55.8479 14.016C56.1199 14.016 56.3119 14.096 56.4239 14.256C56.4399 14.176 56.4959 14.112 56.5919 14.064C56.7039 14.016 56.8319 13.992 56.9759 13.992C57.1039 13.992 57.2319 14.016 57.3599 14.064C57.4879 14.112 57.5839 14.168 57.6479 14.232C57.7439 14.136 57.9119 14.088 58.1519 14.088C58.3439 14.088 58.5359 14.128 58.7279 14.208C58.9199 14.272 59.0479 14.368 59.1119 14.496C59.2079 14.448 59.3119 14.424 59.4239 14.424C59.6159 14.424 59.7919 14.496 59.9519 14.64C60.1279 14.768 60.2479 14.936 60.3119 15.144C60.5519 15.112 60.7999 15.192 61.0559 15.384C61.3119 15.576 61.4079 15.768 61.3439 15.96C61.7759 16.2 61.9919 16.528 61.9919 16.944C61.9919 17.2 61.9039 17.424 61.7279 17.616C61.5519 17.808 61.3279 17.904 61.0559 17.904C60.8159 17.888 60.6159 17.824 60.4559 17.712C60.2959 17.6 60.1999 17.464 60.1679 17.304C59.9599 17.272 59.7599 17.192 59.5679 17.064C59.3919 16.92 59.2959 16.736 59.2799 16.512C58.9759 16.544 58.7439 16.512 58.5839 16.416C58.4399 16.32 58.3119 16.168 58.1999 15.96C58.0879 16.04 57.9439 16.08 57.7679 16.08C57.5919 16.08 57.3999 16.032 57.1919 15.936C57.0799 16.032 56.9359 16.112 56.7599 16.176C56.5999 16.24 56.4399 16.272 56.2799 16.272C56.1039 16.272 55.9519 16.232 55.8239 16.152C55.8559 16.344 55.8079 16.496 55.6799 16.608C55.5519 16.72 55.3759 16.76 55.1519 16.728C55.1999 16.84 55.2239 16.96 55.2239 17.088C55.2239 17.376 55.0959 17.616 54.8399 17.808C55.0159 17.888 55.1439 18.024 55.2239 18.216C55.3039 18.392 55.3359 18.568 55.3199 18.744L55.5119 18.72C55.9919 18.72 56.2959 18.872 56.4239 19.176L56.6159 19.152C56.8719 19.152 57.1119 19.216 57.3359 19.344C57.5759 19.472 57.7519 19.688 57.8639 19.992C58.1199 19.976 58.3679 20.008 58.6079 20.088C58.8479 20.152 59.0159 20.28 59.1119 20.472C59.2399 20.424 59.3599 20.4 59.4719 20.4C59.7439 20.4 59.9839 20.48 60.1919 20.64C60.4159 20.8 60.5359 20.984 60.5519 21.192C60.6959 21.192 60.8239 21.272 60.9359 21.432C61.0639 21.592 61.1119 21.776 61.0799 21.984C61.1919 21.968 61.2959 22.032 61.3919 22.176C61.4879 22.304 61.5359 22.456 61.5359 22.632C61.5359 22.728 61.5119 22.816 61.4639 22.896C61.6879 23.056 61.7999 23.272 61.7999 23.544C61.7999 23.688 61.7679 23.816 61.7039 23.928C61.6559 24.04 61.5759 24.12 61.4639 24.168ZM71.9823 26.136C72.0463 26.248 72.0783 26.352 72.0783 26.448C72.0783 26.672 71.9663 26.864 71.7423 27.024C71.5343 27.2 71.2943 27.288 71.0223 27.288C70.8623 27.288 70.7023 27.24 70.5423 27.144C70.3983 27.064 70.2863 26.936 70.2063 26.76C70.0303 26.68 69.8703 26.512 69.7263 26.256C69.5823 25.984 69.5183 25.752 69.5343 25.56C69.2463 25.496 69.0383 25.368 68.9103 25.176C68.7983 24.984 68.7343 24.704 68.7183 24.336C68.4943 24.208 68.3023 24.048 68.1423 23.856C67.9983 23.648 67.9503 23.44 67.9983 23.232C67.7583 23.184 67.5423 23.032 67.3503 22.776C67.1743 22.504 67.0943 22.24 67.1103 21.984C66.7903 21.904 66.5743 21.496 66.4623 20.76C66.4463 20.872 66.3823 20.984 66.2703 21.096C66.1743 21.192 66.0783 21.24 65.9823 21.24C65.9503 21.4 65.8943 21.536 65.8143 21.648C65.7343 21.76 65.6383 21.816 65.5263 21.816C65.5423 21.992 65.5183 22.168 65.4543 22.344C65.3903 22.504 65.2943 22.64 65.1663 22.752C65.2143 22.848 65.2383 22.984 65.2383 23.16C65.2383 23.4 65.2063 23.552 65.1423 23.616C65.3343 23.824 65.4303 24.024 65.4303 24.216C65.4303 24.328 65.3743 24.472 65.2623 24.648C65.3743 24.856 65.4303 25.04 65.4303 25.2C65.4303 25.36 65.4143 25.488 65.3823 25.584C65.4463 25.728 65.4783 25.888 65.4783 26.064C65.4783 26.352 65.3663 26.6 65.1423 26.808C64.9183 27 64.6703 27.096 64.3983 27.096C63.9503 27.096 63.6703 26.848 63.5583 26.352C63.3983 26.16 63.3183 25.928 63.3183 25.656C63.3183 25.528 63.3423 25.408 63.3903 25.296C63.2623 25.088 63.1982 24.832 63.1982 24.528C63.1982 24.272 63.2383 24.048 63.3183 23.856C63.2063 23.696 63.1503 23.416 63.1503 23.016C63.1503 22.52 63.2063 22.12 63.3183 21.816C63.1903 21.656 63.1263 21.48 63.1263 21.288C63.1263 21.032 63.2063 20.824 63.3663 20.664C63.1743 20.472 63.0783 20.232 63.0783 19.944C63.0783 19.8 63.1183 19.648 63.1982 19.488C63.0863 19.312 63.0303 19.136 63.0303 18.96C63.0303 18.8 63.0703 18.656 63.1503 18.528C63.0863 18.448 63.0543 18.264 63.0543 17.976C63.0543 17.672 63.0863 17.448 63.1503 17.304C63.0863 16.984 63.0543 16.808 63.0543 16.776C63.0543 16.664 63.1183 16.464 63.2463 16.176C63.0063 15.856 62.8863 15.544 62.8863 15.24C62.8863 15.048 62.9183 14.88 62.9823 14.736C62.8703 14.576 62.8143 14.384 62.8143 14.16C62.8143 14.048 62.8303 13.912 62.8623 13.752C62.7663 13.608 62.7183 13.424 62.7183 13.2C62.7183 12.96 62.7743 12.744 62.8863 12.552C62.7263 12.264 62.6463 12.008 62.6463 11.784C62.6463 11.592 62.7023 11.408 62.8143 11.232C62.7343 11.072 62.6943 10.872 62.6943 10.632C62.6943 10.248 62.8063 9.92 63.0303 9.648C63.2703 9.36 63.5743 9.248 63.9423 9.312C64.0703 9.36 64.2143 9.496 64.3743 9.72C64.5343 9.944 64.6143 10.184 64.6143 10.44L64.5903 10.632C64.8463 10.824 64.9743 11.08 64.9743 11.4C64.9743 11.624 64.9023 11.824 64.7583 12C64.9983 12.288 65.1183 12.584 65.1183 12.888C65.1183 13.16 65.0303 13.392 64.8543 13.584C65.0143 13.808 65.0943 14.08 65.0943 14.4C65.0943 14.688 65.0463 14.944 64.9503 15.168C65.0623 15.232 65.1503 15.36 65.2143 15.552C65.2943 15.728 65.3343 15.928 65.3343 16.152C65.3343 16.552 65.2303 16.856 65.0223 17.064C65.1823 17.224 65.2623 17.416 65.2623 17.64C65.2623 17.8 65.2303 17.968 65.1663 18.144C65.1183 18.304 65.0863 18.4 65.0703 18.432C65.1823 18.544 65.2703 18.84 65.3343 19.32L65.3583 19.344C65.4223 19.12 65.5663 18.912 65.7903 18.72C66.0143 18.512 66.1903 18.408 66.3183 18.408C66.3663 18.2 66.5263 17.952 66.7983 17.664C67.0703 17.376 67.3103 17.232 67.5183 17.232C67.5343 17.088 67.6463 16.928 67.8543 16.752C68.0783 16.576 68.2623 16.488 68.4062 16.488C68.5023 16.248 68.6623 16.032 68.8863 15.84C69.1263 15.632 69.3183 15.56 69.4622 15.624C69.4622 15.352 69.5343 15.152 69.6783 15.024C69.8383 14.88 70.0383 14.808 70.2783 14.808C70.5503 14.808 70.7903 14.888 70.9983 15.048C71.2223 15.208 71.3343 15.408 71.3343 15.648C71.3343 15.808 71.2783 15.976 71.1663 16.152C71.0703 16.504 70.9343 16.752 70.7583 16.896C70.5823 17.024 70.3663 17.104 70.1103 17.136C70.1423 17.36 70.0543 17.6 69.8463 17.856C69.6383 18.112 69.3983 18.232 69.1263 18.216C69.0943 18.456 68.9503 18.696 68.6943 18.936C68.4543 19.176 68.2063 19.288 67.9503 19.272C68.3663 19.496 68.5742 19.808 68.5742 20.208C68.5742 20.352 68.5503 20.512 68.5023 20.688C68.6623 20.72 68.8063 20.816 68.9343 20.976C69.0623 21.12 69.1103 21.28 69.0783 21.456C69.3023 21.552 69.5023 21.744 69.6783 22.032C69.8543 22.304 69.9583 22.568 69.9903 22.824C70.1503 22.888 70.2703 23 70.3503 23.16C70.4303 23.304 70.4703 23.472 70.4703 23.664C70.4703 23.776 70.4623 23.864 70.4463 23.928C70.7023 23.992 70.9103 24.16 71.0703 24.432C71.2463 24.688 71.3583 24.952 71.4063 25.224C71.5663 25.24 71.7183 25.368 71.8623 25.608C72.0063 25.832 72.0463 26.008 71.9823 26.136ZM83.3341 17.616C83.5101 17.696 83.6701 17.888 83.8141 18.192C83.9741 18.496 84.0541 18.808 84.0541 19.128C84.0541 19.672 83.8141 20.04 83.3341 20.232C83.2061 20.456 83.0301 20.632 82.8061 20.76C82.5981 20.888 82.3661 20.952 82.1101 20.952C81.9021 20.952 81.6861 20.904 81.4621 20.808C81.3341 20.888 81.1581 20.96 80.9341 21.024C80.7101 21.088 80.4861 21.12 80.2621 21.12C79.8781 21.12 79.6141 21.04 79.4701 20.88C79.3101 21.008 79.0541 21.072 78.7021 21.072C78.4461 21.072 78.2141 21.024 78.0061 20.928C77.7821 21.04 77.5261 21.096 77.2381 21.096C76.9661 21.096 76.7421 21.056 76.5661 20.976C76.4061 21.12 76.0781 21.192 75.5821 21.192C75.3101 21.192 75.1261 21.168 75.0301 21.12C75.0781 21.584 75.0141 21.928 74.8381 22.152C75.1421 22.456 75.2621 22.784 75.1981 23.136C75.2141 23.152 75.3021 23.216 75.4621 23.328C75.6221 23.44 75.7341 23.624 75.7981 23.88C75.9741 23.88 76.1341 23.952 76.2781 24.096C76.4381 24.24 76.5341 24.384 76.5661 24.528C76.6301 24.464 76.7581 24.432 76.9501 24.432C77.0941 24.432 77.2221 24.456 77.3341 24.504C77.4461 24.552 77.5101 24.608 77.5261 24.672C77.6381 24.608 77.7661 24.576 77.9101 24.576C78.1181 24.576 78.3101 24.648 78.4861 24.792C78.6461 24.76 78.7661 24.744 78.8461 24.744C79.0061 24.744 79.1421 24.768 79.2541 24.816C79.3021 24.688 79.4301 24.568 79.6381 24.456C79.8461 24.328 80.0621 24.272 80.2861 24.288C80.4141 24.128 80.5901 24 80.8141 23.904C81.0381 23.808 81.2621 23.76 81.4861 23.76C81.9181 23.76 82.2301 23.936 82.4221 24.288C82.4861 24.416 82.5181 24.568 82.5181 24.744C82.5181 25.128 82.3421 25.432 81.9901 25.656C81.9101 25.704 81.7741 25.792 81.5821 25.92C81.3901 26.032 81.2141 26.12 81.0541 26.184C80.8941 26.248 80.7501 26.28 80.6221 26.28C80.3821 26.568 80.0541 26.712 79.6381 26.712C79.4461 26.712 79.3021 26.696 79.2061 26.664C79.0141 26.824 78.7341 26.904 78.3661 26.904C78.0301 26.904 77.7981 26.84 77.6701 26.712C77.5581 26.76 77.4461 26.784 77.3341 26.784C77.1101 26.784 76.9021 26.704 76.7101 26.544C75.8941 26.592 75.3421 26.336 75.0541 25.776C74.8301 25.776 74.5741 25.64 74.2861 25.368C74.0141 25.08 73.8621 24.832 73.8301 24.624C73.4621 24.48 73.2301 24.216 73.1341 23.832C73.1181 23.704 73.1181 23.584 73.1341 23.472C73.0701 23.456 73.0141 23.392 72.9661 23.28C72.9341 23.152 72.9181 23.024 72.9181 22.896C72.9181 22.8 72.9261 22.736 72.9421 22.704C72.8141 22.32 72.7501 21.968 72.7501 21.648C72.7501 21.328 72.8141 21.04 72.9421 20.784C72.8461 20.608 72.7981 20.416 72.7981 20.208C72.7981 19.952 72.8541 19.696 72.9661 19.44C73.0781 19.184 73.1821 19.016 73.2781 18.936C73.2461 18.856 73.2701 18.72 73.3501 18.528C73.4301 18.32 73.5341 18.136 73.6621 17.976C73.8061 17.8 73.9501 17.696 74.0941 17.664L74.0701 17.4C74.0701 16.776 74.4061 16.384 75.0781 16.224C75.0781 15.952 75.2381 15.688 75.5581 15.432C75.8781 15.176 76.1581 15.064 76.3981 15.096C76.4301 14.92 76.5821 14.784 76.8541 14.688C77.1421 14.576 77.3581 14.544 77.5021 14.592C77.6301 14.384 77.8861 14.24 78.2701 14.16C78.4141 14 78.6221 13.92 78.8941 13.92C78.9741 13.92 79.0781 13.936 79.2061 13.968L79.4221 13.944C79.6141 13.944 79.7741 13.984 79.9021 14.064C80.0461 14.128 80.1101 14.208 80.0941 14.304C80.4461 14.336 80.7421 14.416 80.9821 14.544C81.2221 14.672 81.3661 14.904 81.4141 15.24C81.6221 15.192 81.8861 15.248 82.2061 15.408C82.5261 15.552 82.7981 15.784 83.0221 16.104C83.2621 16.408 83.3821 16.768 83.3821 17.184C83.3821 17.28 83.3661 17.424 83.3341 17.616ZM79.8061 19.176C79.9661 18.952 80.3581 18.84 80.9821 18.84C81.3341 18.84 81.6061 18.872 81.7981 18.936C81.6701 18.872 81.5501 18.736 81.4381 18.528C81.3421 18.304 81.2941 18.096 81.2941 17.904C81.2941 17.776 81.3181 17.68 81.3661 17.616C81.1421 17.632 80.9501 17.576 80.7901 17.448C80.6461 17.304 80.5101 17.144 80.3821 16.968C80.2701 16.792 80.1821 16.664 80.1181 16.584C80.0381 16.632 79.8701 16.592 79.6141 16.464C79.3741 16.32 79.2461 16.176 79.2301 16.032C79.1661 16.112 79.0301 16.184 78.8221 16.248C78.6141 16.296 78.4541 16.312 78.3421 16.296C78.2941 16.376 78.1821 16.456 78.0061 16.536C77.8301 16.616 77.6461 16.64 77.4541 16.608C77.2941 16.912 77.1261 17.16 76.9501 17.352C76.7741 17.544 76.5501 17.688 76.2781 17.784C76.2461 18.008 76.1421 18.256 75.9661 18.528C75.8061 18.8 75.6381 19.008 75.4621 19.152L75.5581 19.176C75.7821 19.016 76.0861 18.936 76.4701 18.936C76.6941 18.936 76.9021 18.96 77.0941 19.008C77.3021 19.056 77.4461 19.112 77.5261 19.176C77.9101 18.936 78.3341 18.816 78.7981 18.816C79.1821 18.816 79.5181 18.936 79.8061 19.176ZM87.49 25.872C87.554 26.224 87.482 26.504 87.274 26.712C87.082 26.904 86.842 27 86.554 27C86.298 27 86.074 26.92 85.882 26.76C85.69 26.584 85.594 26.344 85.594 26.04C85.594 25.848 85.642 25.632 85.738 25.392C85.642 25.168 85.594 24.936 85.594 24.696C85.594 24.504 85.634 24.344 85.714 24.216C85.618 24.152 85.546 24.056 85.498 23.928C85.45 23.8 85.426 23.656 85.426 23.496C85.426 23.336 85.458 23.16 85.522 22.968C85.378 22.792 85.306 22.584 85.306 22.344C85.306 22.04 85.418 21.792 85.642 21.6C85.626 21.552 85.618 21.472 85.618 21.36C85.618 21.2 85.634 21.088 85.666 21.024C85.49 20.8 85.402 20.48 85.402 20.064C85.402 19.776 85.458 19.552 85.57 19.392C85.458 19.296 85.362 19.168 85.282 19.008C85.202 18.832 85.162 18.656 85.162 18.48C85.162 18.288 85.218 18.104 85.33 17.928C85.25 17.736 85.21 17.568 85.21 17.424C85.21 17.184 85.282 16.96 85.426 16.752C85.234 16.56 85.138 16.36 85.138 16.152C85.138 15.992 85.194 15.776 85.306 15.504C85.194 15.28 85.138 15.04 85.138 14.784C85.138 14.448 85.258 14.24 85.498 14.16C85.514 13.936 85.594 13.752 85.738 13.608C85.882 13.464 86.058 13.392 86.266 13.392C86.506 13.392 86.714 13.512 86.89 13.752C87.082 13.976 87.178 14.304 87.178 14.736C87.178 14.912 87.17 15.056 87.154 15.168C87.218 15.136 87.282 15.088 87.346 15.024C87.41 14.944 87.49 14.888 87.586 14.856C87.682 14.824 87.826 14.808 88.018 14.808C88.05 14.728 88.154 14.648 88.33 14.568C88.522 14.488 88.706 14.448 88.882 14.448C89.01 14.448 89.098 14.464 89.146 14.496C89.274 14.432 89.402 14.4 89.53 14.4C89.722 14.4 89.93 14.536 90.154 14.808C90.538 14.776 90.818 14.864 90.994 15.072C91.25 15.056 91.474 15.088 91.666 15.168C91.858 15.248 92.01 15.416 92.122 15.672C92.426 15.864 92.578 16.12 92.578 16.44C92.578 16.712 92.458 16.968 92.218 17.208C91.994 17.432 91.746 17.544 91.474 17.544C91.17 17.544 90.914 17.384 90.706 17.064C90.53 17.064 90.394 17.048 90.298 17.016C90.202 16.984 90.106 16.912 90.01 16.8C89.914 16.832 89.834 16.848 89.77 16.848C89.626 16.848 89.474 16.808 89.314 16.728C89.09 16.872 88.85 16.936 88.594 16.92C88.498 17.144 88.25 17.256 87.85 17.256C87.866 17.304 87.874 17.384 87.874 17.496C87.874 17.704 87.826 17.912 87.73 18.12C87.65 18.312 87.546 18.456 87.418 18.552C87.546 18.856 87.61 19.16 87.61 19.464C87.61 19.736 87.546 19.944 87.418 20.088C87.466 20.152 87.514 20.232 87.562 20.328C87.626 20.424 87.674 20.512 87.706 20.592C87.738 20.72 87.754 20.816 87.754 20.88C87.754 20.992 87.714 21.144 87.634 21.336C87.714 21.528 87.754 21.672 87.754 21.768C87.754 21.896 87.698 22.072 87.586 22.296C87.682 22.456 87.73 22.632 87.73 22.824C87.73 23.048 87.674 23.24 87.562 23.4C87.674 23.656 87.73 23.92 87.73 24.192C87.73 24.4 87.682 24.592 87.586 24.768C87.666 24.928 87.706 25.088 87.706 25.248C87.706 25.472 87.634 25.68 87.49 25.872ZM102.62 24.168C102.668 24.328 102.692 24.488 102.692 24.648C102.692 24.968 102.564 25.184 102.308 25.296C102.34 25.536 102.244 25.776 102.02 26.016C101.796 26.256 101.588 26.376 101.396 26.376C101.316 26.52 101.076 26.656 100.676 26.784C100.276 26.912 99.9081 26.976 99.5721 26.976C99.3321 26.976 99.1481 26.928 99.0201 26.832C98.7961 26.944 98.4761 27 98.0601 27C97.6921 27 97.3561 26.944 97.0521 26.832C96.7641 26.72 96.5881 26.552 96.5241 26.328C96.2041 26.376 95.8441 26.28 95.4441 26.04C95.0601 25.8 94.8121 25.552 94.7001 25.296C94.4121 25.216 94.1721 25.064 93.9801 24.84C93.8041 24.616 93.7081 24.352 93.6921 24.048C93.5961 23.904 93.5481 23.76 93.5481 23.616C93.5481 23.392 93.6201 23.192 93.7641 23.016C93.9241 22.84 94.1081 22.752 94.3161 22.752C94.5241 22.752 94.7241 22.88 94.9161 23.136C95.2041 23.104 95.4601 23.2 95.6841 23.424C95.9241 23.648 96.0441 23.872 96.0441 24.096C96.0921 24.096 96.2121 24.112 96.4041 24.144C96.6121 24.16 96.7961 24.216 96.9561 24.312C97.1161 24.408 97.2281 24.544 97.2921 24.72C97.5801 24.72 97.8601 24.76 98.1321 24.84C98.4201 24.904 98.5881 24.984 98.6361 25.08C98.7641 25 98.9481 24.936 99.1881 24.888C99.4441 24.824 99.6601 24.792 99.8361 24.792C99.8841 24.728 100.004 24.664 100.196 24.6C100.388 24.536 100.548 24.496 100.676 24.48C100.596 24.368 100.556 24.2 100.556 23.976C100.556 23.64 100.66 23.4 100.868 23.256C100.676 23.192 100.524 23.096 100.412 22.968C100.3 22.824 100.252 22.664 100.268 22.488C100.14 22.52 100.044 22.536 99.9801 22.536C99.6761 22.536 99.4281 22.416 99.2361 22.176C98.9161 22.208 98.5961 22.136 98.2761 21.96C97.9721 21.784 97.7481 21.552 97.6041 21.264C97.4921 21.312 97.3721 21.336 97.2441 21.336C96.9721 21.336 96.6841 21.256 96.3801 21.096C96.0921 20.92 95.9081 20.752 95.8281 20.592C95.6041 20.656 95.3401 20.584 95.0361 20.376C94.7321 20.168 94.5801 19.936 94.5801 19.68C94.3881 19.584 94.2361 19.424 94.1241 19.2C94.0121 18.96 93.9561 18.744 93.9561 18.552C93.9561 18.408 93.9881 18.312 94.0521 18.264C93.9721 18.104 93.9321 17.944 93.9321 17.784C93.9321 17.496 94.0281 17.248 94.2201 17.04C94.1721 16.864 94.1481 16.704 94.1481 16.56C94.1481 16.288 94.2041 16.064 94.3161 15.888C94.4441 15.696 94.5961 15.616 94.7721 15.648C94.7401 15.392 94.7961 15.168 94.9401 14.976C95.1001 14.784 95.2921 14.648 95.5161 14.568C95.7561 14.472 95.9641 14.44 96.1401 14.472C96.2361 14.328 96.3641 14.216 96.5241 14.136C96.6841 14.056 96.8441 14.016 97.0041 14.016C97.2761 14.016 97.4681 14.096 97.5801 14.256C97.5961 14.176 97.6521 14.112 97.7481 14.064C97.8601 14.016 97.9881 13.992 98.1321 13.992C98.2601 13.992 98.3881 14.016 98.5161 14.064C98.6441 14.112 98.7401 14.168 98.8041 14.232C98.9001 14.136 99.0681 14.088 99.3081 14.088C99.5001 14.088 99.6921 14.128 99.8841 14.208C100.076 14.272 100.204 14.368 100.268 14.496C100.364 14.448 100.468 14.424 100.58 14.424C100.772 14.424 100.948 14.496 101.108 14.64C101.284 14.768 101.404 14.936 101.468 15.144C101.708 15.112 101.956 15.192 102.212 15.384C102.468 15.576 102.564 15.768 102.5 15.96C102.932 16.2 103.148 16.528 103.148 16.944C103.148 17.2 103.06 17.424 102.884 17.616C102.708 17.808 102.484 17.904 102.212 17.904C101.972 17.888 101.772 17.824 101.612 17.712C101.452 17.6 101.356 17.464 101.324 17.304C101.116 17.272 100.916 17.192 100.724 17.064C100.548 16.92 100.452 16.736 100.436 16.512C100.132 16.544 99.9001 16.512 99.7401 16.416C99.5961 16.32 99.4681 16.168 99.3561 15.96C99.2441 16.04 99.1001 16.08 98.9241 16.08C98.7481 16.08 98.5561 16.032 98.3481 15.936C98.2361 16.032 98.0921 16.112 97.9161 16.176C97.7561 16.24 97.5961 16.272 97.4361 16.272C97.2601 16.272 97.1081 16.232 96.9801 16.152C97.0121 16.344 96.9641 16.496 96.8361 16.608C96.7081 16.72 96.5321 16.76 96.3081 16.728C96.3561 16.84 96.3801 16.96 96.3801 17.088C96.3801 17.376 96.2521 17.616 95.9961 17.808C96.1721 17.888 96.3001 18.024 96.3801 18.216C96.4601 18.392 96.4921 18.568 96.4761 18.744L96.6681 18.72C97.1481 18.72 97.4521 18.872 97.5801 19.176L97.7721 19.152C98.0281 19.152 98.2681 19.216 98.4921 19.344C98.7321 19.472 98.9081 19.688 99.0201 19.992C99.2761 19.976 99.5241 20.008 99.7641 20.088C100.004 20.152 100.172 20.28 100.268 20.472C100.396 20.424 100.516 20.4 100.628 20.4C100.9 20.4 101.14 20.48 101.348 20.64C101.572 20.8 101.692 20.984 101.708 21.192C101.852 21.192 101.98 21.272 102.092 21.432C102.22 21.592 102.268 21.776 102.236 21.984C102.348 21.968 102.452 22.032 102.548 22.176C102.644 22.304 102.692 22.456 102.692 22.632C102.692 22.728 102.668 22.816 102.62 22.896C102.844 23.056 102.956 23.272 102.956 23.544C102.956 23.688 102.924 23.816 102.86 23.928C102.812 24.04 102.732 24.12 102.62 24.168Z" fill="#FFFAFA"/>
</g>
<defs>
<filter id="filter0_n_36_2" x="16.2056" y="9.216" width="86.9426" height="18.072" filterUnits="userSpaceOnUse" color-interpolation-filters="sRGB">
<feFlood flood-opacity="0" result="BackgroundImageFix"/>
<feBlend mode="normal" in="SourceGraphic" in2="BackgroundImageFix" result="shape"/>
<feTurbulence type="fractalNoise" baseFrequency="2 2" stitchTiles="stitch" numOctaves="3" result="noise" seed="8243" />
<feColorMatrix in="noise" type="luminanceToAlpha" result="alphaNoise" />
<feComponentTransfer in="alphaNoise" result="coloredNoise1">
<feFuncA type="discrete" tableValues="1 1 1 1 1 1 1 1 1 1 1 1 1 1 1 1 1 1 1 1 1 1 1 1 1 1 1 1 1 1 1 1 1 1 1 1 1 1 1 1 1 1 1 1 1 1 1 1 1 1 1 0 0 0 0 0 0 0 0 0 0 0 0 0 0 0 0 0 0 0 0 0 0 0 0 0 0 0 0 0 0 0 0 0 0 0 0 0 0 0 0 0 0 0 0 0 0 0 0 0 "/>
</feComponentTransfer>
<feComposite operator="in" in2="shape" in="coloredNoise1" result="noise1Clipped" />
<feFlood flood-color="rgba(0, 0, 0, 0.25)" result="color1Flood" />
<feComposite operator="in" in2="noise1Clipped" in="color1Flood" result="color1" />
<feMerge result="effect1_noise_36_2">
<feMergeNode in="shape" />
<feMergeNode in="color1" />
</feMerge>
</filter>
</defs>
</svg>
